<svg width="41" height="21" viewBox="0 0 41 21" fill="none" xmlns="http://www.w3.org/2000/svg">
<rect width="41" height="21" rx="10.5" fill="#050C14"/>
<path d="M13.3743 5.7725L15.3151 4.3175L12.868 4.25L12.0548 2L11.2417 4.25L8.79456 4.3175L10.7354 5.7725L10.0373 8.0675L12.0548 6.71L14.0724 8.0675L13.3743 5.7725Z" fill="#FEDD71"/>
<path d="M16.7419 10.4375L18 9.5L16.4197 9.4625L15.8904 8L15.3611 9.4625L13.7808 9.5L15.0389 10.4375L14.5863 11.9225L15.8904 11.045L17.1945 11.9225L16.7419 10.4375Z" fill="#FEDD71"/>
<path d="M7.1401 6.13043C7.1401 10.5362 11.0024 14.1014 15.7754 14.1014C16.1914 14.1014 16.5996 14.0725 17 14.0217C15.7361 15.8116 13.5537 17 11.0652 17C7.16365 17 4 14.0797 4 10.4783C4 8.18116 5.28744 6.16667 7.22645 5C7.1715 5.36957 7.1401 5.74638 7.1401 6.13043Z" stroke="white" stroke-width="2" stroke-linecap="round" stroke-linejoin="round"/>
</svg>
