<svg width="41" height="21" viewBox="0 0 41 21" fill="none" xmlns="http://www.w3.org/2000/svg">
<rect width="41" height="21" rx="10.5" fill="#050C14"/>
<g clip-path="url(#clip0_16_81)">
<path d="M32 2.9375C32.1492 2.9375 32.2923 2.99676 32.3977 3.10225C32.5032 3.20774 32.5625 3.35082 32.5625 3.5V4.25C32.5625 4.39918 32.5032 4.54226 32.3977 4.64775C32.2923 4.75324 32.1492 4.8125 32 4.8125C31.8508 4.8125 31.7077 4.75324 31.6023 4.64775C31.4968 4.54226 31.4375 4.39918 31.4375 4.25V3.5C31.4375 3.35082 31.4968 3.20774 31.6023 3.10225C31.7077 2.99676 31.8508 2.9375 32 2.9375Z" fill="#F8E76B"/>
<path fill-rule="evenodd" clip-rule="evenodd" d="M27.6875 11C27.6875 9.85625 28.1419 8.75935 28.9506 7.9506C29.7594 7.14185 30.8563 6.6875 32 6.6875C33.1437 6.6875 34.2406 7.14185 35.0494 7.9506C35.8581 8.75935 36.3125 9.85625 36.3125 11C36.3125 12.1437 35.8581 13.2406 35.0494 14.0494C34.2406 14.8581 33.1437 15.3125 32 15.3125C30.8563 15.3125 29.7594 14.8581 28.9506 14.0494C28.1419 13.2406 27.6875 12.1437 27.6875 11ZM32 7.8125C31.5814 7.8125 31.1669 7.89495 30.7802 8.05513C30.3935 8.21532 30.0421 8.45011 29.7461 8.7461C29.4501 9.04208 29.2153 9.39347 29.0551 9.7802C28.8949 10.1669 28.8125 10.5814 28.8125 11C28.8125 11.4186 28.8949 11.8331 29.0551 12.2198C29.2153 12.6065 29.4501 12.9579 29.7461 13.2539C30.0421 13.5499 30.3935 13.7847 30.7802 13.9449C31.1669 14.1051 31.5814 14.1875 32 14.1875C32.8454 14.1875 33.6561 13.8517 34.2539 13.2539C34.8517 12.6561 35.1875 11.8454 35.1875 11C35.1875 10.1546 34.8517 9.34387 34.2539 8.7461C33.6561 8.14832 32.8454 7.8125 32 7.8125Z" fill="#F8E76B"/>
<path d="M27.095 5.29928C26.989 5.19676 26.8469 5.14 26.6994 5.14121C26.5519 5.14242 26.4108 5.20151 26.3065 5.30576C26.2021 5.41 26.1429 5.55105 26.1416 5.69854C26.1402 5.84603 26.1968 5.98814 26.2992 6.09428L26.8295 6.62453C26.881 6.67979 26.9431 6.72412 27.0121 6.75486C27.0811 6.78561 27.1556 6.80214 27.2311 6.80347C27.3066 6.8048 27.3817 6.79091 27.4517 6.76262C27.5217 6.73433 27.5854 6.69222 27.6388 6.63881C27.6922 6.58539 27.7343 6.52177 27.7626 6.45173C27.7909 6.38169 27.8048 6.30666 27.8034 6.23114C27.8021 6.15561 27.7856 6.08112 27.7548 6.01212C27.7241 5.94313 27.6798 5.88102 27.6245 5.82953L27.095 5.29928ZM40.0625 11C40.0625 11.1492 40.0032 11.2923 39.8977 11.3978C39.7923 11.5033 39.6492 11.5625 39.5 11.5625H38.75C38.6008 11.5625 38.4577 11.5033 38.3523 11.3978C38.2468 11.2923 38.1875 11.1492 38.1875 11C38.1875 10.8508 38.2468 10.7078 38.3523 10.6023C38.4577 10.4968 38.6008 10.4375 38.75 10.4375H39.5C39.6492 10.4375 39.7923 10.4968 39.8977 10.6023C40.0032 10.7078 40.0625 10.8508 40.0625 11ZM37.7007 6.09503C37.7545 6.04316 37.7974 5.98112 37.8269 5.9125C37.8564 5.84389 37.872 5.77009 37.8726 5.6954C37.8733 5.62071 37.8591 5.54663 37.8309 5.47749C37.8026 5.40835 37.7609 5.34553 37.7081 5.29269C37.6553 5.23985 37.5925 5.19805 37.5234 5.16973C37.4543 5.14142 37.3802 5.12715 37.3055 5.12777C37.2309 5.12838 37.157 5.14386 37.0884 5.17331C37.0198 5.20276 36.9577 5.24558 36.9057 5.29928L36.3755 5.82953C36.3202 5.88102 36.2759 5.94313 36.2452 6.01212C36.2144 6.08112 36.1979 6.15561 36.1966 6.23114C36.1952 6.30666 36.2091 6.38169 36.2374 6.45173C36.2657 6.52177 36.3078 6.58539 36.3612 6.63881C36.4146 6.69222 36.4783 6.73433 36.5483 6.76262C36.6183 6.79091 36.6934 6.8048 36.7689 6.80347C36.8444 6.80214 36.9189 6.78561 36.9879 6.75486C37.0569 6.72412 37.119 6.67979 37.1705 6.62453L37.7007 6.09503ZM32 17.1875C32.1492 17.1875 32.2923 17.2468 32.3977 17.3523C32.5032 17.4578 32.5625 17.6008 32.5625 17.75V18.5C32.5625 18.6492 32.5032 18.7923 32.3977 18.8978C32.2923 19.0033 32.1492 19.0625 32 19.0625C31.8508 19.0625 31.7077 19.0033 31.6023 18.8978C31.4968 18.7923 31.4375 18.6492 31.4375 18.5V17.75C31.4375 17.6008 31.4968 17.4578 31.6023 17.3523C31.7077 17.2468 31.8508 17.1875 32 17.1875ZM37.1705 15.3755C37.119 15.3203 37.0569 15.2759 36.9879 15.2452C36.9189 15.2144 36.8444 15.1979 36.7689 15.1966C36.6934 15.1953 36.6183 15.2091 36.5483 15.2374C36.4783 15.2657 36.4146 15.3078 36.3612 15.3612C36.3078 15.4147 36.2657 15.4783 36.2374 15.5483C36.2091 15.6184 36.1952 15.6934 36.1966 15.7689C36.1979 15.8444 36.2144 15.9189 36.2452 15.9879C36.2759 16.0569 36.3202 16.119 36.3755 16.1705L36.9057 16.7008C36.9572 16.756 37.0193 16.8004 37.0883 16.8311C37.1573 16.8619 37.2318 16.8784 37.3074 16.8797C37.3829 16.8811 37.4579 16.8672 37.5279 16.8389C37.598 16.8106 37.6616 16.7685 37.715 16.7151C37.7684 16.6616 37.8105 16.598 37.8388 16.528C37.8671 16.4579 37.881 16.3829 37.8797 16.3074C37.8784 16.2319 37.8618 16.1574 37.8311 16.0884C37.8003 16.0194 37.756 15.9573 37.7007 15.9058L37.1705 15.3755ZM25.8125 11C25.8125 11.1492 25.7532 11.2923 25.6477 11.3978C25.5423 11.5033 25.3992 11.5625 25.25 11.5625H24.5C24.3508 11.5625 24.2077 11.5033 24.1023 11.3978C23.9968 11.2923 23.9375 11.1492 23.9375 11C23.9375 10.8508 23.9968 10.7078 24.1023 10.6023C24.2077 10.4968 24.3508 10.4375 24.5 10.4375H25.25C25.3992 10.4375 25.5423 10.4968 25.6477 10.6023C25.7532 10.7078 25.8125 10.8508 25.8125 11ZM27.6245 16.1705C27.7239 16.0639 27.778 15.9229 27.7754 15.7771C27.7728 15.6314 27.7138 15.4924 27.6107 15.3893C27.5077 15.2863 27.3686 15.2272 27.2229 15.2246C27.0772 15.2221 26.9361 15.2762 26.8295 15.3755L26.2992 15.9058C26.1999 16.0124 26.1458 16.1534 26.1484 16.2992C26.1509 16.4449 26.21 16.5839 26.313 16.687C26.4161 16.7901 26.5551 16.8491 26.7009 16.8517C26.8466 16.8542 26.9876 16.8001 27.0942 16.7008L27.6245 16.1705Z" fill="#F8E76B"/>
</g>
<defs>
<clipPath id="clip0_16_81">
<rect width="18" height="18" fill="white" transform="translate(23 2)"/>
</clipPath>
</defs>
</svg>
